<?xml version="1.0" encoding="UTF-8" standalone="no"?>
<!-- Created with Inkscape (http://www.inkscape.org/) -->

<svg
   version="1.1"
   id="svg2"
   xml:space="preserve"
   width="75.130661"
   height="75.130661"
   viewBox="0 0 75.130662 75.130662"
   xmlns="http://www.w3.org/2000/svg"
   xmlns:svg="http://www.w3.org/2000/svg"><defs
     id="defs6"><clipPath
       clipPathUnits="userSpaceOnUse"
       id="clipPath42"><path
         d="M 0,0 H 749.999 V 500 H 0 Z"
         id="path40" /></clipPath></defs><g
     id="g8"
     transform="matrix(1.3333333,0,0,-1.3333333,-810.0381,-57.291507)"><path
       d="M 0.5840141,-6.6405781 H 750.58302 V 493.35941 H 0.5840141 Z"
       style="fill:#130517;fill-opacity:1;fill-rule:nonzero;stroke:none"
       id="path10" /><path
       d="m -553.97129,-557.93481 h 164.606 v 80.364 h -164.606 z"
       style="fill:#ffffff;fill-opacity:1;fill-rule:nonzero;stroke:none"
       id="path30" /><path
       d="m -498.68629,-557.93481 h 34.773 v 141.65 h -34.773 z"
       style="fill:#de273e;fill-opacity:1;fill-rule:nonzero;stroke:none"
       id="path32" /><path
       d="m -463.91329,-397.63781 h -34.773 v 22.656 h 34.773 z"
       style="fill:#ffffff;fill-opacity:1;fill-rule:nonzero;stroke:none"
       id="path34" /><g
       id="g44"
       transform="translate(-494.14059,-141.16331)"><path
         d="m 0,0 c 0,33.043 -26.787,59.831 -59.831,59.831 -33.044,0 -59.831,-26.788 -59.831,-59.831 0,-33.043 26.787,-59.831 59.831,-59.831 C -26.787,-59.831 0,-33.043 0,0"
         style="fill:#de273e;fill-opacity:1;fill-rule:nonzero;stroke:none"
         id="path46" /></g><g
       id="g48"
       transform="translate(-524.05609,-141.16331)"><path
         d="m 0,0 c 0,16.522 -13.394,29.916 -29.915,29.916 -16.522,0 -29.916,-13.394 -29.916,-29.916 0,-16.522 13.394,-29.916 29.916,-29.916 C -13.394,-29.916 0,-16.522 0,0"
         style="fill:#130517;fill-opacity:1;fill-rule:nonzero;stroke:none"
         id="path50" /></g><g
       id="g1452"
       transform="translate(307.73193,99.114022)"><g
         id="g52"
         transform="translate(649.673)"><path
           d="m 0,0 c 0,34.582 -28.034,62.615 -62.615,62.615 -34.582,0 -62.616,-28.033 -62.616,-62.615 0,-34.582 28.034,-62.615 62.616,-62.615 C -28.034,-62.615 0,-34.582 0,0"
           style="fill:#de273e;fill-opacity:1;fill-rule:nonzero;stroke:none"
           id="path54" /></g><g
         id="g56"
         transform="translate(615.3517)"><path
           d="M 0,0 C 0,15.626 -12.668,28.294 -28.294,28.294 -43.92,28.294 -56.588,15.626 -56.588,0 c 0,-15.626 12.668,-28.294 28.294,-28.294 C -12.668,-28.294 0,-15.626 0,0"
           style="fill:#130517;fill-opacity:1;fill-rule:nonzero;stroke:none"
           id="path58" /></g><g
         id="g60"
         transform="translate(635.485)"><path
           d="m 0,0 c 0,26.746 -21.682,48.428 -48.427,48.428 -26.746,0 -48.428,-21.682 -48.428,-48.428 0,-26.746 21.682,-48.428 48.428,-48.428 C -21.682,-48.428 0,-26.746 0,0 Z"
           style="fill:none;stroke:#ffffff;stroke-width:2;stroke-linecap:butt;stroke-linejoin:miter;stroke-miterlimit:10;stroke-dasharray:none;stroke-opacity:1"
           id="path62" /></g><g
         id="g64"
         transform="translate(604.0841)"><path
           d="m 0,0 c 0,9.403 -7.623,17.026 -17.026,17.026 -9.404,0 -17.027,-7.623 -17.027,-17.026 0,-9.403 7.623,-17.026 17.027,-17.026 C -7.623,-17.026 0,-9.403 0,0"
           style="fill:#ffffff;fill-opacity:1;fill-rule:nonzero;stroke:none"
           id="path66" /></g><g
         id="g68"
         transform="translate(593.6642)"><path
           d="m 0,0 c 0,3.648 -2.958,6.606 -6.606,6.606 -3.649,0 -6.607,-2.958 -6.607,-6.606 0,-3.648 2.958,-6.606 6.607,-6.606 C -2.958,-6.606 0,-3.648 0,0 Z"
           style="fill:none;stroke:#130517;stroke-width:4;stroke-linecap:butt;stroke-linejoin:miter;stroke-miterlimit:10;stroke-dasharray:none;stroke-opacity:1"
           id="path70" /></g></g><g
       id="g72"
       transform="translate(660.37659,-71.142631)"><path
         d="m 0,0 c 0,-13.627 -11.047,-24.674 -24.674,-24.674 -13.627,0 -24.674,11.047 -24.674,24.674 0,13.627 11.047,24.674 24.674,24.674 C -11.047,24.674 0,13.627 0,0 Z"
         style="fill:none;stroke:#ffffff;stroke-width:7;stroke-linecap:butt;stroke-linejoin:miter;stroke-miterlimit:10;stroke-dasharray:none;stroke-opacity:1"
         id="path74" /></g><g
       id="g1622"
       transform="translate(200.89102,381.86842)"><g
         id="g76"
         transform="translate(526.9144,163.40403)"><path
           d="m 0,0 c 0,-9.707 -7.87,-17.576 -17.577,-17.576 -9.707,0 -17.576,7.869 -17.576,17.576 0,9.707 7.869,17.577 17.576,17.577 C -7.87,17.577 0,9.707 0,0"
           style="fill:#de273e;fill-opacity:1;fill-rule:nonzero;stroke:none"
           id="path78" /></g><g
         id="g80"
         transform="translate(515.5438,163.40403)"><path
           d="m 0,0 c 0,-9.707 -7.87,-17.576 -17.577,-17.576 -9.707,0 -17.576,7.869 -17.576,17.576 0,9.707 7.869,17.577 17.576,17.577 C -7.87,17.577 0,9.707 0,0 Z"
           style="fill:none;stroke:#ffffff;stroke-width:2;stroke-linecap:butt;stroke-linejoin:miter;stroke-miterlimit:10;stroke-dasharray:none;stroke-opacity:1"
           id="path82" /></g></g><g
       id="g84"
       transform="translate(147.39751,-397.09791)"><path
         d="m 0,0 c 0,-13.213 -10.712,-23.925 -23.925,-23.925 -13.213,0 -23.925,10.712 -23.925,23.925 0,13.213 10.712,23.925 23.925,23.925 C -10.712,23.925 0,13.213 0,0 Z"
         style="fill:none;stroke:#ffffff;stroke-width:11;stroke-linecap:butt;stroke-linejoin:miter;stroke-miterlimit:10;stroke-dasharray:none;stroke-opacity:1"
         id="path86" /></g><path
       d="m 148.78697,55.667781 h -31.58 V 415.74378 h 31.58 z"
       style="fill:#de273e;fill-opacity:1;fill-rule:nonzero;stroke:none"
       id="path88" /><path
       d="M 1.3117116,-163.48581 H -30.268288 v 13.991 H 1.3117116 Z"
       style="fill:#ffffff;fill-opacity:1;fill-rule:nonzero;stroke:none"
       id="path90" /><path
       d="M 1.3117116,-180.77781 H -30.268288 v 6.01 H 1.3117116 Z"
       style="fill:#ffffff;fill-opacity:1;fill-rule:nonzero;stroke:none"
       id="path92" /><path
       d="m 146.30771,-256.98981 h -27.244 v 165.174001 h 27.244 z"
       style="fill:#de273e;fill-opacity:1;fill-rule:nonzero;stroke:none"
       id="path96" /><g
       id="g98"
       transform="translate(-479.79679,-76.443109)"><path
         d="m 0,0 c 0,-0.925 -0.75,-1.676 -1.676,-1.676 -0.925,0 -1.675,0.751 -1.675,1.676 0,0.925 0.75,1.676 1.675,1.676 C -0.75,1.676 0,0.925 0,0"
         style="fill:#de273e;fill-opacity:1;fill-rule:nonzero;stroke:none"
         id="path100" /></g><g
       id="g102"
       transform="translate(-461.15959,-76.443109)"><path
         d="m 0,0 c 0,-0.925 -0.75,-1.676 -1.675,-1.676 -0.926,0 -1.676,0.751 -1.676,1.676 0,0.925 0.75,1.676 1.676,1.676 C -0.75,1.676 0,0.925 0,0"
         style="fill:#de273e;fill-opacity:1;fill-rule:nonzero;stroke:none"
         id="path104" /></g><g
       id="g106"
       transform="translate(-442.52239,-76.443109)"><path
         d="m 0,0 c 0,-0.925 -0.75,-1.676 -1.675,-1.676 -0.926,0 -1.676,0.751 -1.676,1.676 0,0.925 0.75,1.676 1.676,1.676 C -0.75,1.676 0,0.925 0,0"
         style="fill:#de273e;fill-opacity:1;fill-rule:nonzero;stroke:none"
         id="path108" /></g><g
       id="g110"
       transform="translate(-423.88469,-76.443109)"><path
         d="m 0,0 c 0,-0.925 -0.75,-1.676 -1.676,-1.676 -0.925,0 -1.676,0.751 -1.676,1.676 0,0.925 0.751,1.676 1.676,1.676 C -0.75,1.676 0,0.925 0,0"
         style="fill:#de273e;fill-opacity:1;fill-rule:nonzero;stroke:none"
         id="path112" /></g><g
       id="g114"
       transform="translate(-405.24749,-76.443109)"><path
         d="m 0,0 c 0,-0.925 -0.75,-1.676 -1.676,-1.676 -0.925,0 -1.676,0.751 -1.676,1.676 0,0.925 0.751,1.676 1.676,1.676 C -0.75,1.676 0,0.925 0,0"
         style="fill:#de273e;fill-opacity:1;fill-rule:nonzero;stroke:none"
         id="path116" /></g><g
       id="g118"
       transform="translate(-386.61029,-76.443109)"><path
         d="m 0,0 c 0,-0.925 -0.75,-1.676 -1.676,-1.676 -0.925,0 -1.676,0.751 -1.676,1.676 0,0.925 0.751,1.676 1.676,1.676 C -0.75,1.676 0,0.925 0,0"
         style="fill:#de273e;fill-opacity:1;fill-rule:nonzero;stroke:none"
         id="path120" /></g><g
       id="g122"
       transform="translate(-367.97309,-76.443109)"><path
         d="m 0,0 c 0,-0.925 -0.75,-1.676 -1.676,-1.676 -0.925,0 -1.675,0.751 -1.675,1.676 0,0.925 0.75,1.676 1.675,1.676 C -0.75,1.676 0,0.925 0,0"
         style="fill:#de273e;fill-opacity:1;fill-rule:nonzero;stroke:none"
         id="path124" /></g><g
       id="g126"
       transform="translate(-479.79679,-87.486109)"><path
         d="m 0,0 c 0,-0.925 -0.75,-1.676 -1.676,-1.676 -0.925,0 -1.675,0.751 -1.675,1.676 0,0.925 0.75,1.676 1.675,1.676 C -0.75,1.676 0,0.925 0,0"
         style="fill:#de273e;fill-opacity:1;fill-rule:nonzero;stroke:none"
         id="path128" /></g><g
       id="g130"
       transform="translate(-461.15959,-87.486109)"><path
         d="m 0,0 c 0,-0.925 -0.75,-1.676 -1.675,-1.676 -0.926,0 -1.676,0.751 -1.676,1.676 0,0.925 0.75,1.676 1.676,1.676 C -0.75,1.676 0,0.925 0,0"
         style="fill:#de273e;fill-opacity:1;fill-rule:nonzero;stroke:none"
         id="path132" /></g><g
       id="g134"
       transform="translate(-442.52239,-87.486109)"><path
         d="m 0,0 c 0,-0.925 -0.75,-1.676 -1.675,-1.676 -0.926,0 -1.676,0.751 -1.676,1.676 0,0.925 0.75,1.676 1.676,1.676 C -0.75,1.676 0,0.925 0,0"
         style="fill:#de273e;fill-opacity:1;fill-rule:nonzero;stroke:none"
         id="path136" /></g><g
       id="g138"
       transform="translate(-423.88469,-87.486109)"><path
         d="m 0,0 c 0,-0.925 -0.75,-1.676 -1.676,-1.676 -0.925,0 -1.676,0.751 -1.676,1.676 0,0.925 0.751,1.676 1.676,1.676 C -0.75,1.676 0,0.925 0,0"
         style="fill:#de273e;fill-opacity:1;fill-rule:nonzero;stroke:none"
         id="path140" /></g><g
       id="g142"
       transform="translate(-405.24749,-87.486109)"><path
         d="m 0,0 c 0,-0.925 -0.75,-1.676 -1.676,-1.676 -0.925,0 -1.676,0.751 -1.676,1.676 0,0.925 0.751,1.676 1.676,1.676 C -0.75,1.676 0,0.925 0,0"
         style="fill:#de273e;fill-opacity:1;fill-rule:nonzero;stroke:none"
         id="path144" /></g><g
       id="g146"
       transform="translate(-386.61029,-87.486109)"><path
         d="m 0,0 c 0,-0.925 -0.75,-1.676 -1.676,-1.676 -0.925,0 -1.676,0.751 -1.676,1.676 0,0.925 0.751,1.676 1.676,1.676 C -0.75,1.676 0,0.925 0,0"
         style="fill:#de273e;fill-opacity:1;fill-rule:nonzero;stroke:none"
         id="path148" /></g><g
       id="g150"
       transform="translate(-367.97309,-87.486109)"><path
         d="m 0,0 c 0,-0.925 -0.75,-1.676 -1.676,-1.676 -0.925,0 -1.675,0.751 -1.675,1.676 0,0.925 0.75,1.676 1.675,1.676 C -0.75,1.676 0,0.925 0,0"
         style="fill:#de273e;fill-opacity:1;fill-rule:nonzero;stroke:none"
         id="path152" /></g><g
       id="g154"
       transform="translate(-479.79679,-98.529009)"><path
         d="m 0,0 c 0,-0.926 -0.75,-1.676 -1.676,-1.676 -0.925,0 -1.675,0.75 -1.675,1.676 0,0.925 0.75,1.675 1.675,1.675 C -0.75,1.675 0,0.925 0,0"
         style="fill:#de273e;fill-opacity:1;fill-rule:nonzero;stroke:none"
         id="path156" /></g><g
       id="g158"
       transform="translate(-461.15959,-98.529009)"><path
         d="m 0,0 c 0,-0.926 -0.75,-1.676 -1.675,-1.676 -0.926,0 -1.676,0.75 -1.676,1.676 0,0.925 0.75,1.675 1.676,1.675 C -0.75,1.675 0,0.925 0,0"
         style="fill:#de273e;fill-opacity:1;fill-rule:nonzero;stroke:none"
         id="path160" /></g><g
       id="g162"
       transform="translate(-442.52239,-98.529009)"><path
         d="m 0,0 c 0,-0.926 -0.75,-1.676 -1.675,-1.676 -0.926,0 -1.676,0.75 -1.676,1.676 0,0.925 0.75,1.675 1.676,1.675 C -0.75,1.675 0,0.925 0,0"
         style="fill:#de273e;fill-opacity:1;fill-rule:nonzero;stroke:none"
         id="path164" /></g><g
       id="g166"
       transform="translate(-423.88469,-98.529009)"><path
         d="m 0,0 c 0,-0.926 -0.75,-1.676 -1.676,-1.676 -0.925,0 -1.676,0.75 -1.676,1.676 0,0.925 0.751,1.675 1.676,1.675 C -0.75,1.675 0,0.925 0,0"
         style="fill:#de273e;fill-opacity:1;fill-rule:nonzero;stroke:none"
         id="path168" /></g><g
       id="g170"
       transform="translate(-405.24749,-98.529009)"><path
         d="m 0,0 c 0,-0.926 -0.75,-1.676 -1.676,-1.676 -0.925,0 -1.676,0.75 -1.676,1.676 0,0.925 0.751,1.675 1.676,1.675 C -0.75,1.675 0,0.925 0,0"
         style="fill:#de273e;fill-opacity:1;fill-rule:nonzero;stroke:none"
         id="path172" /></g><g
       id="g174"
       transform="translate(-386.61029,-98.529009)"><path
         d="m 0,0 c 0,-0.926 -0.75,-1.676 -1.676,-1.676 -0.925,0 -1.676,0.75 -1.676,1.676 0,0.925 0.751,1.675 1.676,1.675 C -0.75,1.675 0,0.925 0,0"
         style="fill:#de273e;fill-opacity:1;fill-rule:nonzero;stroke:none"
         id="path176" /></g><g
       id="g178"
       transform="translate(-367.97309,-98.529009)"><path
         d="m 0,0 c 0,-0.926 -0.75,-1.676 -1.676,-1.676 -0.925,0 -1.675,0.75 -1.675,1.676 0,0.925 0.75,1.675 1.675,1.675 C -0.75,1.675 0,0.925 0,0"
         style="fill:#de273e;fill-opacity:1;fill-rule:nonzero;stroke:none"
         id="path180" /></g><g
       id="g182"
       transform="translate(-479.79679,-109.57201)"><path
         d="m 0,0 c 0,-0.926 -0.75,-1.676 -1.676,-1.676 -0.925,0 -1.675,0.75 -1.675,1.676 0,0.925 0.75,1.675 1.675,1.675 C -0.75,1.675 0,0.925 0,0"
         style="fill:#de273e;fill-opacity:1;fill-rule:nonzero;stroke:none"
         id="path184" /></g><g
       id="g186"
       transform="translate(-461.15959,-109.57201)"><path
         d="m 0,0 c 0,-0.926 -0.75,-1.676 -1.675,-1.676 -0.926,0 -1.676,0.75 -1.676,1.676 0,0.925 0.75,1.675 1.676,1.675 C -0.75,1.675 0,0.925 0,0"
         style="fill:#de273e;fill-opacity:1;fill-rule:nonzero;stroke:none"
         id="path188" /></g><g
       id="g190"
       transform="translate(-442.52239,-109.57201)"><path
         d="m 0,0 c 0,-0.926 -0.75,-1.676 -1.675,-1.676 -0.926,0 -1.676,0.75 -1.676,1.676 0,0.925 0.75,1.675 1.676,1.675 C -0.75,1.675 0,0.925 0,0"
         style="fill:#de273e;fill-opacity:1;fill-rule:nonzero;stroke:none"
         id="path192" /></g><g
       id="g194"
       transform="translate(-423.88469,-109.57201)"><path
         d="m 0,0 c 0,-0.926 -0.75,-1.676 -1.676,-1.676 -0.925,0 -1.676,0.75 -1.676,1.676 0,0.925 0.751,1.675 1.676,1.675 C -0.75,1.675 0,0.925 0,0"
         style="fill:#de273e;fill-opacity:1;fill-rule:nonzero;stroke:none"
         id="path196" /></g><g
       id="g198"
       transform="translate(-405.24749,-109.57201)"><path
         d="m 0,0 c 0,-0.926 -0.75,-1.676 -1.676,-1.676 -0.925,0 -1.676,0.75 -1.676,1.676 0,0.925 0.751,1.675 1.676,1.675 C -0.75,1.675 0,0.925 0,0"
         style="fill:#de273e;fill-opacity:1;fill-rule:nonzero;stroke:none"
         id="path200" /></g><g
       id="g202"
       transform="translate(-386.61029,-109.57201)"><path
         d="m 0,0 c 0,-0.926 -0.75,-1.676 -1.676,-1.676 -0.925,0 -1.676,0.75 -1.676,1.676 0,0.925 0.751,1.675 1.676,1.675 C -0.75,1.675 0,0.925 0,0"
         style="fill:#de273e;fill-opacity:1;fill-rule:nonzero;stroke:none"
         id="path204" /></g><g
       id="g206"
       transform="translate(-367.97309,-109.57201)"><path
         d="m 0,0 c 0,-0.926 -0.75,-1.676 -1.676,-1.676 -0.925,0 -1.675,0.75 -1.675,1.676 0,0.925 0.75,1.675 1.675,1.675 C -0.75,1.675 0,0.925 0,0"
         style="fill:#de273e;fill-opacity:1;fill-rule:nonzero;stroke:none"
         id="path208" /></g><g
       id="g1590"
       transform="translate(460.41104,309.28548)"><g
         id="g210"
         transform="translate(358.0353,50.3389)"><path
           d="m 0,0 c 0,-0.926 -0.75,-1.676 -1.675,-1.676 -0.926,0 -1.676,0.75 -1.676,1.676 0,0.926 0.75,1.676 1.676,1.676 C -0.75,1.676 0,0.926 0,0"
           style="fill:#de273e;fill-opacity:1;fill-rule:nonzero;stroke:none"
           id="path212" /></g><g
         id="g214"
         transform="translate(376.673,50.3389)"><path
           d="m 0,0 c 0,-0.926 -0.75,-1.676 -1.676,-1.676 -0.926,0 -1.676,0.75 -1.676,1.676 0,0.926 0.75,1.676 1.676,1.676 C -0.75,1.676 0,0.926 0,0"
           style="fill:#de273e;fill-opacity:1;fill-rule:nonzero;stroke:none"
           id="path216" /></g><g
         id="g218"
         transform="translate(395.3102,50.3389)"><path
           d="m 0,0 c 0,-0.926 -0.75,-1.676 -1.676,-1.676 -0.925,0 -1.676,0.75 -1.676,1.676 0,0.926 0.751,1.676 1.676,1.676 C -0.75,1.676 0,0.926 0,0"
           style="fill:#de273e;fill-opacity:1;fill-rule:nonzero;stroke:none"
           id="path220" /></g><g
         id="g222"
         transform="translate(413.9474,50.3389)"><path
           d="m 0,0 c 0,-0.926 -0.75,-1.676 -1.676,-1.676 -0.925,0 -1.676,0.75 -1.676,1.676 0,0.926 0.751,1.676 1.676,1.676 C -0.75,1.676 0,0.926 0,0"
           style="fill:#de273e;fill-opacity:1;fill-rule:nonzero;stroke:none"
           id="path224" /></g><g
         id="g226"
         transform="translate(432.5846,50.3389)"><path
           d="m 0,0 c 0,-0.926 -0.75,-1.676 -1.676,-1.676 -0.925,0 -1.675,0.75 -1.675,1.676 0,0.926 0.75,1.676 1.675,1.676 C -0.75,1.676 0,0.926 0,0"
           style="fill:#de273e;fill-opacity:1;fill-rule:nonzero;stroke:none"
           id="path228" /></g><g
         id="g230"
         transform="translate(451.2218,50.3389)"><path
           d="m 0,0 c 0,-0.926 -0.75,-1.676 -1.676,-1.676 -0.925,0 -1.675,0.75 -1.675,1.676 0,0.926 0.75,1.676 1.675,1.676 C -0.75,1.676 0,0.926 0,0"
           style="fill:#de273e;fill-opacity:1;fill-rule:nonzero;stroke:none"
           id="path232" /></g><g
         id="g234"
         transform="translate(469.859,50.3389)"><path
           d="m 0,0 c 0,-0.926 -0.75,-1.676 -1.675,-1.676 -0.926,0 -1.676,0.75 -1.676,1.676 0,0.926 0.75,1.676 1.676,1.676 C -0.75,1.676 0,0.926 0,0"
           style="fill:#de273e;fill-opacity:1;fill-rule:nonzero;stroke:none"
           id="path236" /></g><g
         id="g238"
         transform="translate(358.0353,39.2959)"><path
           d="m 0,0 c 0,-0.926 -0.75,-1.676 -1.675,-1.676 -0.926,0 -1.676,0.75 -1.676,1.676 0,0.925 0.75,1.676 1.676,1.676 C -0.75,1.676 0,0.925 0,0"
           style="fill:#de273e;fill-opacity:1;fill-rule:nonzero;stroke:none"
           id="path240" /></g><g
         id="g242"
         transform="translate(376.673,39.2959)"><path
           d="m 0,0 c 0,-0.926 -0.75,-1.676 -1.676,-1.676 -0.926,0 -1.676,0.75 -1.676,1.676 0,0.925 0.75,1.676 1.676,1.676 C -0.75,1.676 0,0.925 0,0"
           style="fill:#de273e;fill-opacity:1;fill-rule:nonzero;stroke:none"
           id="path244" /></g><g
         id="g246"
         transform="translate(395.3102,39.2959)"><path
           d="m 0,0 c 0,-0.926 -0.75,-1.676 -1.676,-1.676 -0.925,0 -1.676,0.75 -1.676,1.676 0,0.925 0.751,1.676 1.676,1.676 C -0.75,1.676 0,0.925 0,0"
           style="fill:#de273e;fill-opacity:1;fill-rule:nonzero;stroke:none"
           id="path248" /></g><g
         id="g250"
         transform="translate(413.9474,39.2959)"><path
           d="m 0,0 c 0,-0.926 -0.75,-1.676 -1.676,-1.676 -0.925,0 -1.676,0.75 -1.676,1.676 0,0.925 0.751,1.676 1.676,1.676 C -0.75,1.676 0,0.925 0,0"
           style="fill:#de273e;fill-opacity:1;fill-rule:nonzero;stroke:none"
           id="path252" /></g><g
         id="g254"
         transform="translate(432.5846,39.2959)"><path
           d="m 0,0 c 0,-0.926 -0.75,-1.676 -1.676,-1.676 -0.925,0 -1.675,0.75 -1.675,1.676 0,0.925 0.75,1.676 1.675,1.676 C -0.75,1.676 0,0.925 0,0"
           style="fill:#de273e;fill-opacity:1;fill-rule:nonzero;stroke:none"
           id="path256" /></g><g
         id="g258"
         transform="translate(451.2218,39.2959)"><path
           d="m 0,0 c 0,-0.926 -0.75,-1.676 -1.676,-1.676 -0.925,0 -1.675,0.75 -1.675,1.676 0,0.925 0.75,1.676 1.675,1.676 C -0.75,1.676 0,0.925 0,0"
           style="fill:#de273e;fill-opacity:1;fill-rule:nonzero;stroke:none"
           id="path260" /></g><g
         id="g262"
         transform="translate(469.859,39.2959)"><path
           d="m 0,0 c 0,-0.926 -0.75,-1.676 -1.675,-1.676 -0.926,0 -1.676,0.75 -1.676,1.676 0,0.925 0.75,1.676 1.676,1.676 C -0.75,1.676 0,0.925 0,0"
           style="fill:#de273e;fill-opacity:1;fill-rule:nonzero;stroke:none"
           id="path264" /></g><g
         id="g266"
         transform="translate(358.0353,28.2529)"><path
           d="m 0,0 c 0,-0.926 -0.75,-1.676 -1.675,-1.676 -0.926,0 -1.676,0.75 -1.676,1.676 0,0.925 0.75,1.676 1.676,1.676 C -0.75,1.676 0,0.925 0,0"
           style="fill:#de273e;fill-opacity:1;fill-rule:nonzero;stroke:none"
           id="path268" /></g><g
         id="g270"
         transform="translate(376.673,28.2529)"><path
           d="m 0,0 c 0,-0.926 -0.75,-1.676 -1.676,-1.676 -0.926,0 -1.676,0.75 -1.676,1.676 0,0.925 0.75,1.676 1.676,1.676 C -0.75,1.676 0,0.925 0,0"
           style="fill:#de273e;fill-opacity:1;fill-rule:nonzero;stroke:none"
           id="path272" /></g><g
         id="g274"
         transform="translate(395.3102,28.2529)"><path
           d="m 0,0 c 0,-0.926 -0.75,-1.676 -1.676,-1.676 -0.925,0 -1.676,0.75 -1.676,1.676 0,0.925 0.751,1.676 1.676,1.676 C -0.75,1.676 0,0.925 0,0"
           style="fill:#de273e;fill-opacity:1;fill-rule:nonzero;stroke:none"
           id="path276" /></g><g
         id="g278"
         transform="translate(413.9474,28.2529)"><path
           d="m 0,0 c 0,-0.926 -0.75,-1.676 -1.676,-1.676 -0.925,0 -1.676,0.75 -1.676,1.676 0,0.925 0.751,1.676 1.676,1.676 C -0.75,1.676 0,0.925 0,0"
           style="fill:#de273e;fill-opacity:1;fill-rule:nonzero;stroke:none"
           id="path280" /></g><g
         id="g282"
         transform="translate(432.5846,28.2529)"><path
           d="m 0,0 c 0,-0.926 -0.75,-1.676 -1.676,-1.676 -0.925,0 -1.675,0.75 -1.675,1.676 0,0.925 0.75,1.676 1.675,1.676 C -0.75,1.676 0,0.925 0,0"
           style="fill:#de273e;fill-opacity:1;fill-rule:nonzero;stroke:none"
           id="path284" /></g><g
         id="g286"
         transform="translate(451.2218,28.2529)"><path
           d="m 0,0 c 0,-0.926 -0.75,-1.676 -1.676,-1.676 -0.925,0 -1.675,0.75 -1.675,1.676 0,0.925 0.75,1.676 1.675,1.676 C -0.75,1.676 0,0.925 0,0"
           style="fill:#de273e;fill-opacity:1;fill-rule:nonzero;stroke:none"
           id="path288" /></g><g
         id="g290"
         transform="translate(469.859,28.2529)"><path
           d="m 0,0 c 0,-0.926 -0.75,-1.676 -1.675,-1.676 -0.926,0 -1.676,0.75 -1.676,1.676 0,0.925 0.75,1.676 1.676,1.676 C -0.75,1.676 0,0.925 0,0"
           style="fill:#de273e;fill-opacity:1;fill-rule:nonzero;stroke:none"
           id="path292" /></g><g
         id="g294"
         transform="translate(358.0353,17.21)"><path
           d="m 0,0 c 0,-0.926 -0.75,-1.676 -1.675,-1.676 -0.926,0 -1.676,0.75 -1.676,1.676 0,0.925 0.75,1.676 1.676,1.676 C -0.75,1.676 0,0.925 0,0"
           style="fill:#de273e;fill-opacity:1;fill-rule:nonzero;stroke:none"
           id="path296" /></g><g
         id="g298"
         transform="translate(376.673,17.21)"><path
           d="m 0,0 c 0,-0.926 -0.75,-1.676 -1.676,-1.676 -0.926,0 -1.676,0.75 -1.676,1.676 0,0.925 0.75,1.676 1.676,1.676 C -0.75,1.676 0,0.925 0,0"
           style="fill:#de273e;fill-opacity:1;fill-rule:nonzero;stroke:none"
           id="path300" /></g><g
         id="g302"
         transform="translate(395.3102,17.21)"><path
           d="m 0,0 c 0,-0.926 -0.75,-1.676 -1.676,-1.676 -0.925,0 -1.676,0.75 -1.676,1.676 0,0.925 0.751,1.676 1.676,1.676 C -0.75,1.676 0,0.925 0,0"
           style="fill:#de273e;fill-opacity:1;fill-rule:nonzero;stroke:none"
           id="path304" /></g><g
         id="g306"
         transform="translate(413.9474,17.21)"><path
           d="m 0,0 c 0,-0.926 -0.75,-1.676 -1.676,-1.676 -0.925,0 -1.676,0.75 -1.676,1.676 0,0.925 0.751,1.676 1.676,1.676 C -0.75,1.676 0,0.925 0,0"
           style="fill:#de273e;fill-opacity:1;fill-rule:nonzero;stroke:none"
           id="path308" /></g><g
         id="g310"
         transform="translate(432.5846,17.21)"><path
           d="m 0,0 c 0,-0.926 -0.75,-1.676 -1.676,-1.676 -0.925,0 -1.675,0.75 -1.675,1.676 0,0.925 0.75,1.676 1.675,1.676 C -0.75,1.676 0,0.925 0,0"
           style="fill:#de273e;fill-opacity:1;fill-rule:nonzero;stroke:none"
           id="path312" /></g><g
         id="g314"
         transform="translate(451.2218,17.21)"><path
           d="m 0,0 c 0,-0.926 -0.75,-1.676 -1.676,-1.676 -0.925,0 -1.675,0.75 -1.675,1.676 0,0.925 0.75,1.676 1.675,1.676 C -0.75,1.676 0,0.925 0,0"
           style="fill:#de273e;fill-opacity:1;fill-rule:nonzero;stroke:none"
           id="path316" /></g><g
         id="g318"
         transform="translate(469.859,17.21)"><path
           d="m 0,0 c 0,-0.926 -0.75,-1.676 -1.675,-1.676 -0.926,0 -1.676,0.75 -1.676,1.676 0,0.925 0.75,1.676 1.676,1.676 C -0.75,1.676 0,0.925 0,0"
           style="fill:#de273e;fill-opacity:1;fill-rule:nonzero;stroke:none"
           id="path320" /></g></g><path
       d="m -524.05629,-363.07581 h -5.691 v 106.086 h 5.691 z"
       style="fill:#de273e;fill-opacity:1;fill-rule:nonzero;stroke:none"
       id="path322" /><path
       d="m -352.65029,-485.00481 h -5.691 v 67.468 h 5.691 z"
       style="fill:#de273e;fill-opacity:1;fill-rule:nonzero;stroke:none"
       id="path324" /><path
       d="m -792.66173,-649.78171 h -5.691 v 106.086 h 5.691 z"
       style="fill:#de273e;fill-opacity:1;fill-rule:nonzero;stroke:none"
       id="path326" /><path
       d="m -226.09929,-118.43381 h -5.691 v 106.086003 h 5.691 z"
       style="fill:#de273e;fill-opacity:1;fill-rule:nonzero;stroke:none"
       id="path328" /><path
       d="m 105.42371,-321.76981 h -5.690998 v 106.085 h 5.690998 z"
       style="fill:#ffffff;fill-opacity:1;fill-rule:nonzero;stroke:none"
       id="path330" /><path
       d="m -413.30529,-321.35881 h -29.095 v 29.095 h 29.095 z"
       style="fill:#ffffff;fill-opacity:1;fill-rule:nonzero;stroke:none"
       id="path332" /><path
       d="m -399.59929,-335.06481 h -29.095 v 29.094 h 29.095 z"
       style="fill:#de273e;fill-opacity:1;fill-rule:nonzero;stroke:none"
       id="path334" /><path
       d="m -385.64629,-349.01881 h -29.095 v 29.095 h 29.095 z"
       style="fill:none;stroke:#ffffff;stroke-width:2;stroke-linecap:butt;stroke-linejoin:miter;stroke-miterlimit:10;stroke-dasharray:none;stroke-opacity:1"
       id="path336" /><g
       id="g1627"
       transform="translate(239.9863,5.5379667)"><path
         d="M 611.105,437.024 H 582.01 v 29.095 h 29.095 z"
         style="fill:#ffffff;fill-opacity:1;fill-rule:nonzero;stroke:none"
         id="path338" /><path
         d="m 624.812,423.318 h -29.095 v 29.095 h 29.095 z"
         style="fill:#de273e;fill-opacity:1;fill-rule:nonzero;stroke:none"
         id="path340" /><path
         d="M 638.765,409.365 H 609.67 v 29.095 h 29.095 z"
         style="fill:none;stroke:#ffffff;stroke-width:2;stroke-linecap:butt;stroke-linejoin:miter;stroke-miterlimit:10;stroke-dasharray:none;stroke-opacity:1"
         id="path342" /></g><g
       id="g344"
       transform="translate(-341.30759,-128.23021)"><path
         d="M 0,0 V -8.755"
         style="fill:none;stroke:#ffffff;stroke-width:2;stroke-linecap:butt;stroke-linejoin:miter;stroke-miterlimit:10;stroke-dasharray:none;stroke-opacity:1"
         id="path346" /></g><g
       id="g348"
       transform="translate(-336.93009,-132.60771)"><path
         d="M 0,0 H -8.755"
         style="fill:none;stroke:#ffffff;stroke-width:2;stroke-linecap:butt;stroke-linejoin:miter;stroke-miterlimit:10;stroke-dasharray:none;stroke-opacity:1"
         id="path350" /></g><g
       id="g352"
       transform="translate(-323.85589,-128.23021)"><path
         d="M 0,0 V -8.755"
         style="fill:none;stroke:#ffffff;stroke-width:2;stroke-linecap:butt;stroke-linejoin:miter;stroke-miterlimit:10;stroke-dasharray:none;stroke-opacity:1"
         id="path354" /></g><g
       id="g356"
       transform="translate(-319.47849,-132.60771)"><path
         d="M 0,0 H -8.755"
         style="fill:none;stroke:#ffffff;stroke-width:2;stroke-linecap:butt;stroke-linejoin:miter;stroke-miterlimit:10;stroke-dasharray:none;stroke-opacity:1"
         id="path358" /></g><g
       id="g360"
       transform="translate(-306.40379,-128.23021)"><path
         d="M 0,0 V -8.755"
         style="fill:none;stroke:#ffffff;stroke-width:2;stroke-linecap:butt;stroke-linejoin:miter;stroke-miterlimit:10;stroke-dasharray:none;stroke-opacity:1"
         id="path362" /></g><g
       id="g364"
       transform="translate(-302.02679,-132.60771)"><path
         d="M 0,0 H -8.754"
         style="fill:none;stroke:#ffffff;stroke-width:2;stroke-linecap:butt;stroke-linejoin:miter;stroke-miterlimit:10;stroke-dasharray:none;stroke-opacity:1"
         id="path366" /></g><g
       id="g368"
       transform="translate(-288.95209,-128.23021)"><path
         d="M 0,0 V -8.755"
         style="fill:none;stroke:#ffffff;stroke-width:2;stroke-linecap:butt;stroke-linejoin:miter;stroke-miterlimit:10;stroke-dasharray:none;stroke-opacity:1"
         id="path370" /></g><g
       id="g372"
       transform="translate(-284.57469,-132.60771)"><path
         d="M 0,0 H -8.755"
         style="fill:none;stroke:#ffffff;stroke-width:2;stroke-linecap:butt;stroke-linejoin:miter;stroke-miterlimit:10;stroke-dasharray:none;stroke-opacity:1"
         id="path374" /></g><g
       id="g1616"
       transform="translate(139.03381,53.881551)"><g
         id="g376"
         transform="translate(688.24434,227.4205)"><path
           d="M 0,0 V -8.755"
           style="fill:none;stroke:#ffffff;stroke-width:2;stroke-linecap:butt;stroke-linejoin:miter;stroke-miterlimit:10;stroke-dasharray:none;stroke-opacity:1"
           id="path378" /></g><g
         id="g380"
         transform="translate(692.62184,223.0426)"><path
           d="M 0,0 H -8.755"
           style="fill:none;stroke:#ffffff;stroke-width:2;stroke-linecap:butt;stroke-linejoin:miter;stroke-miterlimit:10;stroke-dasharray:none;stroke-opacity:1"
           id="path382" /></g><g
         id="g384"
         transform="translate(705.69604,227.4205)"><path
           d="M 0,0 V -8.755"
           style="fill:none;stroke:#ffffff;stroke-width:2;stroke-linecap:butt;stroke-linejoin:miter;stroke-miterlimit:10;stroke-dasharray:none;stroke-opacity:1"
           id="path386" /></g><g
         id="g388"
         transform="translate(710.07344,223.0426)"><path
           d="M 0,0 H -8.755"
           style="fill:none;stroke:#ffffff;stroke-width:2;stroke-linecap:butt;stroke-linejoin:miter;stroke-miterlimit:10;stroke-dasharray:none;stroke-opacity:1"
           id="path390" /></g><g
         id="g392"
         transform="translate(723.14764,227.4205)"><path
           d="M 0,0 V -8.755"
           style="fill:none;stroke:#ffffff;stroke-width:2;stroke-linecap:butt;stroke-linejoin:miter;stroke-miterlimit:10;stroke-dasharray:none;stroke-opacity:1"
           id="path394" /></g><g
         id="g396"
         transform="translate(727.52514,223.0426)"><path
           d="M 0,0 H -8.755"
           style="fill:none;stroke:#ffffff;stroke-width:2;stroke-linecap:butt;stroke-linejoin:miter;stroke-miterlimit:10;stroke-dasharray:none;stroke-opacity:1"
           id="path398" /></g><g
         id="g400"
         transform="translate(740.59934,227.4205)"><path
           d="M 0,0 V -8.755"
           style="fill:none;stroke:#ffffff;stroke-width:2;stroke-linecap:butt;stroke-linejoin:miter;stroke-miterlimit:10;stroke-dasharray:none;stroke-opacity:1"
           id="path402" /></g><g
         id="g404"
         transform="translate(744.97674,223.0426)"><path
           d="M 0,0 H -8.755"
           style="fill:none;stroke:#ffffff;stroke-width:2;stroke-linecap:butt;stroke-linejoin:miter;stroke-miterlimit:10;stroke-dasharray:none;stroke-opacity:1"
           id="path406" /></g></g><g
       id="g408"
       transform="translate(120.13091,-447.95731)"><path
         d="M 0,0 V -8.755"
         style="fill:none;stroke:#ffffff;stroke-width:2;stroke-linecap:butt;stroke-linejoin:miter;stroke-miterlimit:10;stroke-dasharray:none;stroke-opacity:1"
         id="path410" /></g><g
       id="g412"
       transform="translate(124.50831,-452.33421)"><path
         d="M 0,0 H -8.755"
         style="fill:none;stroke:#ffffff;stroke-width:2;stroke-linecap:butt;stroke-linejoin:miter;stroke-miterlimit:10;stroke-dasharray:none;stroke-opacity:1"
         id="path414" /></g><g
       id="g416"
       transform="translate(137.58251,-447.95731)"><path
         d="M 0,0 V -8.755"
         style="fill:none;stroke:#ffffff;stroke-width:2;stroke-linecap:butt;stroke-linejoin:miter;stroke-miterlimit:10;stroke-dasharray:none;stroke-opacity:1"
         id="path418" /></g><g
       id="g420"
       transform="translate(141.96001,-452.33421)"><path
         d="M 0,0 H -8.755"
         style="fill:none;stroke:#ffffff;stroke-width:2;stroke-linecap:butt;stroke-linejoin:miter;stroke-miterlimit:10;stroke-dasharray:none;stroke-opacity:1"
         id="path422" /></g><g
       id="g424"
       transform="translate(155.03421,-447.95731)"><path
         d="M 0,0 V -8.755"
         style="fill:none;stroke:#ffffff;stroke-width:2;stroke-linecap:butt;stroke-linejoin:miter;stroke-miterlimit:10;stroke-dasharray:none;stroke-opacity:1"
         id="path426" /></g><g
       id="g428"
       transform="translate(159.41161,-452.33421)"><path
         d="M 0,0 H -8.755"
         style="fill:none;stroke:#ffffff;stroke-width:2;stroke-linecap:butt;stroke-linejoin:miter;stroke-miterlimit:10;stroke-dasharray:none;stroke-opacity:1"
         id="path430" /></g><g
       id="g432"
       transform="translate(172.48591,-447.95731)"><path
         d="M 0,0 V -8.755"
         style="fill:none;stroke:#ffffff;stroke-width:2;stroke-linecap:butt;stroke-linejoin:miter;stroke-miterlimit:10;stroke-dasharray:none;stroke-opacity:1"
         id="path434" /></g><g
       id="g436"
       transform="translate(176.86331,-452.33421)"><path
         d="M 0,0 H -8.755"
         style="fill:none;stroke:#ffffff;stroke-width:2;stroke-linecap:butt;stroke-linejoin:miter;stroke-miterlimit:10;stroke-dasharray:none;stroke-opacity:1"
         id="path438" /></g><g
       id="g440"
       transform="translate(-55.833488,-132.98171)"><path
         d="m 0,0 c 0,-18.102 -14.675,-32.776 -32.776,-32.776 -18.102,0 -32.777,14.674 -32.777,32.776 0,18.102 14.675,32.777 32.777,32.777 C -14.675,32.777 0,18.102 0,0"
         style="fill:#de273e;fill-opacity:1;fill-rule:nonzero;stroke:none"
         id="path442" /></g><g
       id="g444"
       transform="translate(-322.12299,-497.66531)"><path
         d="m 0,0 c 0,-4.819 -3.907,-8.726 -8.726,-8.726 -4.819,0 -8.726,3.907 -8.726,8.726 0,4.819 3.907,8.727 8.726,8.727 C -3.907,8.727 0,4.819 0,0 Z"
         style="fill:none;stroke:#ffffff;stroke-width:2;stroke-linecap:butt;stroke-linejoin:miter;stroke-miterlimit:10;stroke-dasharray:none;stroke-opacity:1"
         id="path446" /></g><g
       id="g448"
       transform="translate(-77.822188,-132.98171)"><path
         d="m 0,0 c 0,-18.102 -14.674,-32.776 -32.776,-32.776 -18.102,0 -32.777,14.674 -32.777,32.776 0,18.102 14.675,32.777 32.777,32.777 C -14.674,32.777 0,18.102 0,0 Z"
         style="fill:none;stroke:#ffffff;stroke-width:2;stroke-linecap:butt;stroke-linejoin:miter;stroke-miterlimit:10;stroke-dasharray:none;stroke-opacity:1"
         id="path450" /></g><g
       id="g452"
       transform="translate(-478.47019,-243.69361)"><path
         d="m 0,0 c 0,-6.814 -5.523,-12.337 -12.337,-12.337 -6.813,0 -12.337,5.523 -12.337,12.337 0,6.813 5.524,12.336 12.337,12.336 C -5.523,12.336 0,6.813 0,0 Z"
         style="fill:none;stroke:#ffffff;stroke-width:2;stroke-linecap:butt;stroke-linejoin:miter;stroke-miterlimit:10;stroke-dasharray:none;stroke-opacity:1"
         id="path454" /></g><g
       id="g1639"
       transform="translate(590.77616,-107.36575)"><g
         id="g456"
         transform="translate(147.6842,44.0547)"><path
           d="m 0,0 c 0,-10.595 -8.589,-19.184 -19.184,-19.184 -10.595,0 -19.184,8.589 -19.184,19.184 0,10.595 8.589,19.184 19.184,19.184 C -8.589,19.184 0,10.595 0,0"
           style="fill:#130517;fill-opacity:1;fill-rule:nonzero;stroke:none"
           id="path458" /></g><g
         id="g460"
         transform="translate(137.7726,44.0547)"><path
           d="m 0,0 c 0,-5.121 -4.151,-9.272 -9.272,-9.272 -5.122,0 -9.273,4.151 -9.273,9.272 0,5.121 4.151,9.272 9.273,9.272 C -4.151,9.272 0,5.121 0,0 Z"
           style="fill:none;stroke:#de273e;stroke-width:3;stroke-linecap:butt;stroke-linejoin:miter;stroke-miterlimit:10;stroke-dasharray:none;stroke-opacity:1"
           id="path462" /></g></g><path
       d="m -462.35829,-179.40281 h -3.667 v 49.38 h 3.667 z"
       style="fill:#de273e;fill-opacity:1;fill-rule:nonzero;stroke:none"
       id="path464" /><path
       d="m -447.83029,-179.40281 h -3.667 v 49.38 h 3.667 z"
       style="fill:#de273e;fill-opacity:1;fill-rule:nonzero;stroke:none"
       id="path466" /><path
       d="m -433.30229,-179.40281 h -3.668 v 49.38 h 3.668 z"
       style="fill:#de273e;fill-opacity:1;fill-rule:nonzero;stroke:none"
       id="path468" /><path
       d="m -418.77529,-179.40281 h -3.668 v 49.38 h 3.668 z"
       style="fill:#de273e;fill-opacity:1;fill-rule:nonzero;stroke:none"
       id="path470" /><g
       id="g1633"
       transform="translate(-111.99554,234.26019)"><path
         d="m 593.259,292.871 h -3.667 v 49.38 h 3.667 z"
         style="fill:#de273e;fill-opacity:1;fill-rule:nonzero;stroke:none"
         id="path472" /><path
         d="m 607.787,292.871 h -3.667 v 49.38 h 3.667 z"
         style="fill:#de273e;fill-opacity:1;fill-rule:nonzero;stroke:none"
         id="path474" /><path
         d="m 622.314,292.871 h -3.667 v 49.38 h 3.667 z"
         style="fill:#de273e;fill-opacity:1;fill-rule:nonzero;stroke:none"
         id="path476" /><path
         d="m 636.841,292.871 h -3.667 v 49.38 h 3.667 z"
         style="fill:#de273e;fill-opacity:1;fill-rule:nonzero;stroke:none"
         id="path478" /></g><g
       id="g480"
       transform="translate(-423.88469,-236.06611)"><path
         d="m 0,0 c 0,-2.601 -2.108,-4.709 -4.709,-4.709 -2.601,0 -4.709,2.108 -4.709,4.709 0,2.601 2.108,4.709 4.709,4.709 C -2.108,4.709 0,2.601 0,0"
         style="fill:#ffffff;fill-opacity:1;fill-rule:nonzero;stroke:none"
         id="path482" /></g><g
       id="g484"
       transform="translate(-321.82319,-367.35771)"><path
         d="m 0,0 c 0,-1.201 -0.974,-2.174 -2.174,-2.174 -1.201,0 -2.175,0.973 -2.175,2.174 0,1.201 0.974,2.174 2.175,2.174 C -0.974,2.174 0,1.201 0,0"
         style="fill:#ffffff;fill-opacity:1;fill-rule:nonzero;stroke:none"
         id="path486" /></g><g
       id="g488"
       transform="translate(-334.74119,-349.01881)"><path
         d="m 0,0 c 0,-1.208 -0.98,-2.188 -2.189,-2.188 -1.209,0 -2.188,0.98 -2.188,2.188 0,1.209 0.979,2.189 2.188,2.189 C -0.98,2.189 0,1.209 0,0"
         style="fill:#ffffff;fill-opacity:1;fill-rule:nonzero;stroke:none"
         id="path490" /></g><g
       id="g1645"
       transform="translate(301.12512,510.1159)"><g
         id="g492"
         transform="translate(278.9108,20.1328)"><path
           d="m 0,0 c 0,-1.614 -1.309,-2.923 -2.923,-2.923 -1.615,0 -2.924,1.309 -2.924,2.923 0,1.614 1.309,2.924 2.924,2.924 C -1.309,2.924 0,1.614 0,0"
           style="fill:#ffffff;fill-opacity:1;fill-rule:nonzero;stroke:none"
           id="path494" /></g><g
         id="g496"
         transform="translate(305.7238,56.2559)"><path
           d="m 0,0 c 0,-2.343 -1.899,-4.241 -4.242,-4.241 -2.342,0 -4.242,1.898 -4.242,4.241 0,2.343 1.9,4.242 4.242,4.242 C -1.899,4.242 0,2.343 0,0"
           style="fill:#ffffff;fill-opacity:1;fill-rule:nonzero;stroke:none"
           id="path498" /></g></g><g
       id="g500"
       transform="translate(157.15681,-304.68481)"><path
         d="m 0,0 c 0,-1.795 -1.455,-3.25 -3.25,-3.25 -1.795,0 -3.25,1.455 -3.25,3.25 0,1.795 1.455,3.25 3.25,3.25 C -1.455,3.25 0,1.795 0,0"
         style="fill:#ffffff;fill-opacity:1;fill-rule:nonzero;stroke:none"
         id="path502" /></g><g
       id="g504"
       transform="translate(51.995112,-405.52951)"><path
         d="m 0,0 c 0,-2.015 -1.633,-3.648 -3.648,-3.648 -2.016,0 -3.649,1.633 -3.649,3.648 0,2.016 1.633,3.648 3.649,3.648 C -1.633,3.648 0,2.016 0,0"
         style="fill:#ffffff;fill-opacity:1;fill-rule:nonzero;stroke:none"
         id="path506" /></g><g
       id="g508"
       transform="translate(174.02591,-504.63691)"><path
         d="m 0,0 c 0,-1.635 -1.325,-2.959 -2.958,-2.959 -1.635,0 -2.959,1.324 -2.959,2.959 0,1.634 1.324,2.958 2.959,2.958 C -1.325,2.958 0,1.634 0,0"
         style="fill:#ffffff;fill-opacity:1;fill-rule:nonzero;stroke:none"
         id="path510" /></g><g
       id="g512"
       transform="translate(33.884482,-442.30454)"><path
         d="m 0,0 c 0,-1.01 -0.819,-1.829 -1.83,-1.829 -1.009,0 -1.829,0.819 -1.829,1.829 0,1.011 0.82,1.83 1.829,1.83 C -0.819,1.83 0,1.011 0,0"
         style="fill:#ffffff;fill-opacity:1;fill-rule:nonzero;stroke:none"
         id="path514" /></g><g
       id="g516"
       transform="translate(-53.934488,-76.443109)"><path
         d="m 0,0 c 0,-0.925 -0.75,-1.676 -1.676,-1.676 -0.925,0 -1.676,0.751 -1.676,1.676 0,0.925 0.751,1.676 1.676,1.676 C -0.75,1.676 0,0.925 0,0"
         style="fill:#ffffff;fill-opacity:1;fill-rule:nonzero;stroke:none"
         id="path518" /></g><g
       id="g520"
       transform="translate(-148.61469,-174.40261)"><path
         d="m 0,0 c 0,-2.308 -1.871,-4.179 -4.179,-4.179 -2.308,0 -4.179,1.871 -4.179,4.179 0,2.308 1.871,4.179 4.179,4.179 C -1.871,4.179 0,2.308 0,0"
         style="fill:#ffffff;fill-opacity:1;fill-rule:nonzero;stroke:none"
         id="path522" /></g><g
       id="g524"
       transform="translate(-278.56979,-88.813209)"><path
         d="m 0,0 c 0,-1.658 -1.344,-3.002 -3.002,-3.002 -1.659,0 -3.003,1.344 -3.003,3.002 0,1.658 1.344,3.003 3.003,3.003 C -1.344,3.003 0,1.658 0,0"
         style="fill:#ffffff;fill-opacity:1;fill-rule:nonzero;stroke:none"
         id="path526" /></g><g
       id="g528"
       transform="translate(-256.73139,-88.304409)"><path
         d="m 0,0 c 0,-1.377 -1.117,-2.494 -2.494,-2.494 -1.377,0 -2.494,1.117 -2.494,2.494 0,1.377 1.117,2.494 2.494,2.494 C -1.117,2.494 0,1.377 0,0"
         style="fill:#ffffff;fill-opacity:1;fill-rule:nonzero;stroke:none"
         id="path530" /></g><g
       id="g532"
       transform="translate(-44.541488,-263.24781)"><path
         d="m 0,0 c 0,-1.377 -1.117,-2.494 -2.494,-2.494 -1.378,0 -2.494,1.117 -2.494,2.494 0,1.377 1.116,2.494 2.494,2.494 C -1.117,2.494 0,1.377 0,0"
         style="fill:#ffffff;fill-opacity:1;fill-rule:nonzero;stroke:none"
         id="path534" /></g><path
       d="m -187.03729,-84.108809 h -24.499 v 71.761002 h 24.499 z"
       style="fill:#ffffff;fill-opacity:1;fill-rule:nonzero;stroke:none"
       id="path536" /><g
       id="g538"
       transform="translate(-349.16009,-257.61991)"><path
         d="M 0,0 12.622,-10.445 0,-20.889 Z"
         style="fill:#ffffff;fill-opacity:1;fill-rule:nonzero;stroke:none"
         id="path540" /></g><g
       id="g542"
       transform="translate(-330.16689,-257.61991)"><path
         d="M 0,0 12.623,-10.445 0,-20.889 Z"
         style="fill:#ffffff;fill-opacity:1;fill-rule:nonzero;stroke:none"
         id="path544" /></g><g
       id="g546"
       transform="translate(-311.17379,-257.61991)"><path
         d="M 0,0 12.623,-10.445 0,-20.889 Z"
         style="fill:#de273e;fill-opacity:1;fill-rule:nonzero;stroke:none"
         id="path548" /></g><g
       id="g1598"
       transform="translate(-84.648244,463.04038)"><g
         id="g550"
         transform="translate(465.132,105.6074)"><path
           d="M 0,0 12.623,-10.445 0,-20.89 Z"
           style="fill:#ffffff;fill-opacity:1;fill-rule:nonzero;stroke:none"
           id="path552" /></g><g
         id="g554"
         transform="translate(484.1252,105.6074)"><path
           d="M 0,0 12.623,-10.445 0,-20.89 Z"
           style="fill:#de273e;fill-opacity:1;fill-rule:nonzero;stroke:none"
           id="path556" /></g><g
         id="g558"
         transform="translate(503.1188,105.6074)"><path
           d="M 0,0 12.622,-10.445 0,-20.89 Z"
           style="fill:#ffffff;fill-opacity:1;fill-rule:nonzero;stroke:none"
           id="path560" /></g></g><g
       id="g562"
       transform="translate(73.843312,-474.07841)"><path
         d="m 0,0 c 0,-4.775 -3.871,-8.646 -8.646,-8.646 -4.775,0 -8.646,3.871 -8.646,8.646 0,4.774 3.871,8.646 8.646,8.646 C -3.871,8.646 0,4.774 0,0 Z"
         style="fill:none;stroke:#ffffff;stroke-width:2;stroke-linecap:butt;stroke-linejoin:miter;stroke-miterlimit:10;stroke-dasharray:none;stroke-opacity:1"
         id="path564" /></g><g
       id="g566"
       transform="translate(41.253912,-311.46611)"><path
         d="m 0,0 c 0,-5.326 -4.317,-9.644 -9.644,-9.644 -5.326,0 -9.643,4.318 -9.643,9.644 0,5.326 4.317,9.644 9.643,9.644 C -4.317,9.644 0,5.326 0,0"
         style="fill:#de273e;fill-opacity:1;fill-rule:nonzero;stroke:none"
         id="path568" /></g><g
       id="g570"
       transform="translate(-403.54049,-405.45041)"><path
         d="m 0,0 c 0,-2.144 -1.738,-3.882 -3.882,-3.882 -2.143,0 -3.881,1.738 -3.881,3.882 0,2.144 1.738,3.882 3.881,3.882 C -1.738,3.882 0,2.144 0,0"
         style="fill:#ffffff;fill-opacity:1;fill-rule:nonzero;stroke:none"
         id="path572" /></g><g
       id="g574"
       transform="translate(-382.05899,-431.11841)"><path
         d="m 0,0 c 0,-2.912 -2.361,-5.273 -5.273,-5.273 -2.913,0 -5.274,2.361 -5.274,5.273 0,2.912 2.361,5.273 5.274,5.273 C -2.361,5.273 0,2.912 0,0"
         style="fill:#de273e;fill-opacity:1;fill-rule:nonzero;stroke:none"
         id="path576" /></g><g
       id="g578"
       transform="translate(-301.62449,-421.14961)"><path
         d="m 0,0 c 0,-3.856 -3.126,-6.983 -6.983,-6.983 -3.857,0 -6.983,3.127 -6.983,6.983 0,3.856 3.126,6.983 6.983,6.983 C -3.126,6.983 0,3.856 0,0 Z"
         style="fill:none;stroke:#ffffff;stroke-width:2;stroke-linecap:butt;stroke-linejoin:miter;stroke-miterlimit:10;stroke-dasharray:none;stroke-opacity:1"
         id="path580" /></g></g></svg>
