<?xml version="1.0" encoding="utf-8"?>
<!-- Svg Vector Icons : http://www.onlinewebfonts.com/icon -->
<!DOCTYPE svg PUBLIC "-//W3C//DTD SVG 1.1//EN" "http://www.w3.org/Graphics/SVG/1.1/DTD/svg11.dtd">
<svg version="1.1" xmlns="http://www.w3.org/2000/svg" xmlns:xlink="http://www.w3.org/1999/xlink" x="0px" y="0px" viewBox="0 0 256 256" enable-background="new 0 0 256 256" xml:space="preserve">
<metadata> Svg Vector Icons : http://www.onlinewebfonts.com/icon </metadata>
<g><g><g><path fill="#000000" d="M116.6,10.4C89.4,13.1,64,25.1,44.4,44.6c-18.7,18.7-29.9,41.6-33.8,69c-0.8,5.4-0.8,23.6,0,29.1c3.9,27.4,15.1,50.2,33.8,69c18.7,18.7,41.6,30,69,33.8c5.4,0.8,23.6,0.8,29.1,0c22.6-3.2,42.8-11.8,59.6-25.3c5.6-4.6,13.8-12.8,18.3-18.4c12.8-16,21.5-36.1,24.6-57c1.6-10.7,1.5-15.3-0.8-32.3c-1.8-13.1-2.4-16.3-3.8-20.7c-5.8-18.1-15.4-33.7-28.9-47.1C186.7,19.8,151.5,7.1,116.6,10.4z M191.7,109.9v45.5h-63.7H64.2v-45.5V64.4h63.7h63.7V109.9z M118.7,173.6v9h9.2h9.2v-9v-9h4.4h4.4v9v9h9.2h9.2v4.6v4.6h-36.5H91.5v-4.6v-4.6h9.2h9.2v-9v-9h4.4h4.4L118.7,173.6L118.7,173.6z"/><path fill="#000000" d="M78.8,74.5c-2.2,1-3.6,2.5-4.6,4.8c-0.6,1.5-0.7,5.6-0.7,30.8c0,27.7,0,29.2,0.9,30.8c1.1,2.1,3,4,4.8,4.7c0.9,0.4,16.3,0.5,48.8,0.5s47.9-0.1,48.8-0.5c1.8-0.6,3.7-2.6,4.8-4.7c0.8-1.6,0.9-3.1,0.9-30.8c0-25.3-0.1-29.4-0.7-30.8c-1-2.3-2.4-3.7-4.6-4.8c-1.8-0.8-4.2-0.9-49.2-0.9C82.9,73.6,80.5,73.7,78.8,74.5z M173.2,110.1v27.2h-45.2H82.7v-27.2V82.9h45.2h45.2L173.2,110.1L173.2,110.1z"/><path fill="#000000" d="M91.5,109.9v18.2h13.6h13.6v-18.2V91.7h-13.6H91.5V109.9L91.5,109.9z M109.9,109.9v9h-4.6h-4.6v-9v-9h4.6h4.6V109.9z"/><path fill="#000000" d="M132.6,103v11.3h9h9v2.3v2.3h-9h-9v4.6v4.6h13.6h13.6v-11.3v-11.3h-9h-9v-2.3v-2.3h9h9v-4.6v-4.6h-13.6h-13.6V103z"/></g></g></g>
</svg>